<?xml version="1.0" encoding="UTF-8" standalone="no"?>
<svg
   xmlns:dc="http://purl.org/dc/elements/1.1/"
   xmlns:cc="http://creativecommons.org/ns#"
   xmlns:rdf="http://www.w3.org/1999/02/22-rdf-syntax-ns#"
   xmlns:svg="http://www.w3.org/2000/svg"
   xmlns="http://www.w3.org/2000/svg"
   xmlns:sodipodi="http://sodipodi.sourceforge.net/DTD/sodipodi-0.dtd"
   xmlns:inkscape="http://www.inkscape.org/namespaces/inkscape"
   width="130"
   height="130"
   id="svg2"
   version="1.1"
   inkscape:version="0.91 r13725"
   sodipodi:docname="DOI_logo.svg">
  <metadata
     id="metadata14">
    <rdf:RDF>
      <cc:Work
         rdf:about="">
        <dc:format>image/svg+xml</dc:format>
        <dc:type
           rdf:resource="http://purl.org/dc/dcmitype/StillImage" />
      </cc:Work>
    </rdf:RDF>
  </metadata>
  <defs
     id="defs12" />
  <sodipodi:namedview
     pagecolor="#ffffff"
     bordercolor="#666666"
     borderopacity="1"
     objecttolerance="10"
     gridtolerance="10"
     guidetolerance="10"
     inkscape:pageopacity="0"
     inkscape:pageshadow="2"
     inkscape:window-width="1855"
     inkscape:window-height="1056"
     id="namedview10"
     showgrid="false"
     inkscape:zoom="3.6307692"
     inkscape:cx="142.69839"
     inkscape:cy="88.500766"
     inkscape:window-x="1985"
     inkscape:window-y="171"
     inkscape:window-maximized="1"
     inkscape:current-layer="svg2" />
  <circle
     style="fill:#fcb425"
     cx="65"
     cy="65"
     r="64"
     id="circle4" />
  <path
     style="fill:#231f20"
     d="m 49.819127,84.559148 -11.854304,0 0,-4.825665 c -1.203594,1.510894 -4.035515,3.051053 -5.264716,3.742483 -2.151101,1.203585 -5.072066,1.987225 -7.812161,1.987225 -4.430246,0 -8.373925,-1.399539 -11.831057,-4.446924 -4.1229464,-3.636389 -6.0602455,-9.19576 -6.0602455,-15.188113 0,-6.094791 2.1126913,-10.960381 6.3380645,-14.59676 3.354695,-2.893745 7.457089,-5.209795 11.810505,-5.209795 2.535231,0 5.661807,0.227363 7.889738,1.302913 1.280414,0.614601 3.572628,2.060721 4.929872,3.469179 l 0,-25.420177 11.854304,0 z m -12.1199,-18.692584 c 0,-2.253538 -0.618258,-4.951555 -2.205973,-6.513663 -1.587724,-1.587724 -4.474153,-2.996182 -6.727691,-2.996182 -2.509615,0 -4.834476,1.825511 -6.447807,3.720535 -1.306031,1.536501 -1.959041,3.905269 -1.959041,5.877114 0,1.971835 0.740815,4.165004 2.046836,5.701505 1.587714,1.895025 3.297985,3.193739 5.833216,3.193739 2.279145,0 4.989965,-0.956662 6.552083,-2.51877 1.587714,-1.562108 2.908377,-4.185134 2.908377,-6.464278 z"
     id="path6" />
  <path
     style="fill:#fff"
     d="m 105.42764,25.617918 c -1.97184,0 -3.64919,0.69142 -5.03204,2.074271 -1.357247,1.357245 -2.035864,3.021779 -2.035864,4.993633 0,1.971835 0.678617,3.649193 2.035864,5.032034 1.38285,1.382861 3.0602,2.074281 5.03204,2.074281 1.99744,0 3.67479,-0.678627 5.03203,-2.035861 1.38285,-1.382861 2.07428,-3.073012 2.07428,-5.070454 0,-1.971854 -0.69143,-3.636388 -2.07428,-4.993633 -1.38285,-1.382851 -3.0602,-2.074271 -5.03203,-2.074271 z M 74.219383,45.507921 c -7.323992,0 -12.970625,2.283009 -16.939921,6.848949 -3.277876,3.782438 -4.916803,8.118252 -4.916803,13.008406 0,5.430481 1.626124,10.009834 4.878383,13.738236 3.943689,4.538918 9.475093,6.808622 16.59421,6.808622 7.093512,0 12.612122,-2.269704 16.555801,-6.808622 3.252259,-3.728402 4.878393,-8.1993 4.878393,-13.413648 0,-5.160323 -1.638938,-9.604602 -4.916803,-13.332994 -4.020509,-4.56594 -9.398263,-6.848949 -16.13326,-6.848949 z m 24.908603,1.386686 0,37.634676 12.599304,0 0,-37.634676 -12.599304,0 z M 73.835252,56.975981 c 2.304752,0 4.263793,0.852337 5.877124,2.554426 1.638928,1.675076 2.458402,3.727881 2.458402,6.159457 0,2.458578 -0.806671,4.538022 -2.419992,6.240111 -1.613331,1.675086 -3.585175,2.514099 -5.915534,2.514099 -2.612051,0 -4.737546,-1.027366 -6.376474,-3.080682 -1.331637,-1.648053 -1.997451,-3.539154 -1.997451,-5.673528 0,-2.107362 0.665814,-3.985138 1.997451,-5.633201 1.638928,-2.053316 3.764423,-3.080682 6.376474,-3.080682 z"
     id="path8" />
  <g
     id="g4182"
     transform="translate(1.4788256,-1.7542363)">
    <circle
       id="circle4-4"
       r="7.7036805"
       cy="10.328389"
       cx="119.94702"
       style="fill:none;stroke:#000000;stroke-width:1.74094474" />
    <path
       id="path6-5"
       d="M 119.47696,9.6320115 C 119.95573,9.6320115 120.30392,9.5362595 120.51283,9.3534605 120.72174,9.1793665 120.83491,8.8834065 120.83491,8.4655795 120.83491,8.0564565 120.72174,7.7692005 120.51283,7.5864015 120.30392,7.4123075 119.95573,7.3252595 119.47696,7.3252595 L 118.50204,7.3252595 118.50204,9.6320115 119.47696,9.6320115 M 118.50204,11.224977 118.50204,14.619819 116.18658,14.619819 116.18658,5.6452485 119.7207,5.6452485 C 120.90454,5.6452485 121.76631,5.8454575 122.31471,6.2458745 122.87181,6.6375865 123.14166,7.2643265 123.14166,8.1260945 123.14166,8.7180155 123.00238,9.2054805 122.71512,9.5884875 122.42787,9.9627905 122.00134,10.250047 121.41812,10.424142 121.74019,10.502485 122.01875,10.667874 122.27118,10.920312 122.52362,11.172748 122.77606,11.555756 123.02849,12.07804 L 124.29068,14.619819 121.82725,14.619819 120.73045,12.39141 C 120.51283,11.947469 120.28651,11.634099 120.06018,11.477413 119.83386,11.312024 119.5292,11.224977 119.1549,11.224977 L 118.50204,11.224977"
       inkscape:connector-curvature="0" />
  </g>
</svg>
